<?xml version="1.0" encoding="utf-8"?>
<!-- Generator: Adobe Illustrator 19.0.0, SVG Export Plug-In . SVG Version: 6.00 Build 0)  -->
<svg version="1.1" xmlns="http://www.w3.org/2000/svg" xmlns:xlink="http://www.w3.org/1999/xlink" x="0px" y="0px"
	 viewBox="0 0 170.5 170.5" style="enable-background:new 0 0 170.5 170.5;" xml:space="preserve">
<style type="text/css">
	.st0{fill:#FFFFFF;}
	.st1{fill:#FF9933;}
	.st2{fill:#3E4A5A;}
	.st3{fill:#414042;}
	.st4{fill:#FFCC33;}
	.st5{fill:#515254;}
	.st6{fill:#009999;}
	.st7{fill:#00CC99;}
	.st8{fill:#FF3333;}
</style>
<g id="background">
</g>
<g id="object">
	<g>
		<circle class="st0" cx="-156.1" cy="85.2" r="81.9"/>
		<g>
			<defs>
				<circle id="SVGID_1_" cx="-156.1" cy="85.2" r="81.9"/>
			</defs>
			<clipPath id="SVGID_2_">
				<use xlink:href="#SVGID_1_"  style="overflow:visible;"/>
			</clipPath>
		</g>
		<path class="st1" d="M-113,81.3h-43.1h-43.1c-4.5,0-7.1,3.5-5.9,7.8l9,40.3c1.2,4.3,5.9,7.8,10.4,7.8h29.6h29.6
			c4.5,0,9.1-3.5,10.4-7.8l9-40.3C-105.9,84.8-108.5,81.3-113,81.3z M-182.8,130.3c-0.2,0-0.4,0-0.6,0c-1.5,0-2.8-1.1-3.1-2.6
			l-5.4-30.3c-0.3-1.7,0.8-3.4,2.6-3.7c1.7-0.3,3.4,0.8,3.7,2.6l5.4,30.3C-180,128.4-181.1,130-182.8,130.3z M-169.5,130.4
			c-0.1,0-0.2,0-0.3,0c-1.6,0-3-1.2-3.1-2.9l-2.5-30.3c-0.1-1.7,1.1-3.3,2.9-3.4c1.7-0.1,3.3,1.1,3.4,2.9l2.5,30.3
			C-166.5,128.7-167.8,130.2-169.5,130.4z M-152.9,127.3c0,1.7-1.4,3.2-3.2,3.2c0,0,0,0,0,0c0,0,0,0,0,0c-1.7,0-3.2-1.4-3.2-3.2
			V96.9c0-1.7,1.4-3.2,3.2-3.2c0,0,0,0,0,0c0,0,0,0,0,0c1.7,0,3.2,1.4,3.2,3.2V127.3z M-139.4,127.5c-0.1,1.6-1.5,2.9-3.2,2.9
			c-0.1,0-0.2,0-0.3,0c-1.7-0.1-3-1.7-2.9-3.4l2.5-30.3c0.1-1.7,1.7-3,3.4-2.9c1.7,0.1,3,1.7,2.9,3.4L-139.4,127.5z M-120.3,97.4
			l-5.4,30.3c-0.3,1.5-1.6,2.6-3.1,2.6c-0.2,0-0.4,0-0.6,0c-1.7-0.3-2.9-2-2.6-3.7l5.4-30.3c0.3-1.7,2-2.9,3.7-2.6
			C-121.2,94.1-120,95.7-120.3,97.4z"/>
		<path class="st2" d="M-134.4,80.4c-1.5,0-3-0.8-3.8-2.3l-17.2-32l-20,32.2c-1.2,2-3.9,2.6-5.9,1.4c-2-1.2-2.6-3.9-1.4-5.9
			l23.9-38.6c0.8-1.3,2.2-2.1,3.8-2c1.5,0,2.9,0.9,3.6,2.3l20.7,38.6c1.1,2.1,0.3,4.7-1.8,5.8C-133,80.2-133.7,80.4-134.4,80.4z"/>
		<circle class="st3" cx="-132" cy="79.7" r="3.6"/>
		<path class="st4" d="M-103.6,71.2h-52.5h-52.5c-1.9,0-3.4,1.5-3.4,3.4v10.8c0,1.9,1.5,3.4,3.4,3.4h52.5h52.5
			c1.9,0,3.4-1.5,3.4-3.4V74.6C-100.2,72.7-101.7,71.2-103.6,71.2z"/>
		<g>
			<path class="st5" d="M-176.7,79.7c0,2-1.6,3.6-3.6,3.6c-2,0-3.6-1.6-3.6-3.6"/>
		</g>
		<g>
			<path class="st2" d="M-176.7,80.1c0,2-1.6,3.6-3.6,3.6c-2,0-3.6-1.6-3.6-3.6c0-2,1.6-3.6,3.6-3.6
				C-178.3,76.5-176.7,78.1-176.7,80.1z"/>
			<circle class="st2" cx="-132.3" cy="80.4" r="3.6"/>
		</g>
	</g>
	<g>
		<circle class="st0" cx="85.2" cy="85.2" r="81.9"/>
		<g>
			<defs>
				<circle id="SVGID_3_" cx="85.2" cy="85.2" r="81.9"/>
			</defs>
			<clipPath id="SVGID_4_">
				<use xlink:href="#SVGID_3_"  style="overflow:visible;"/>
			</clipPath>
		</g>
		<path class="st6" d="M128.4,81.3H85.2H42.1c-4.5,0-7.1,3.5-5.9,7.8l9,40.3c1.2,4.3,5.9,7.8,10.4,7.8h29.6h29.6
			c4.5,0,9.1-3.5,10.4-7.8l9-40.3C135.5,84.8,132.9,81.3,128.4,81.3z M58.5,130.3c-0.2,0-0.4,0-0.6,0c-1.5,0-2.8-1.1-3.1-2.6
			l-5.4-30.3c-0.3-1.7,0.8-3.4,2.6-3.7c1.7-0.3,3.4,0.8,3.7,2.6l5.4,30.3C61.4,128.4,60.3,130,58.5,130.3z M71.9,130.4
			c-0.1,0-0.2,0-0.3,0c-1.6,0-3-1.2-3.1-2.9L66,97.2c-0.1-1.7,1.1-3.3,2.9-3.4c1.7-0.1,3.3,1.1,3.4,2.9l2.5,30.3
			C74.9,128.7,73.6,130.2,71.9,130.4z M88.5,127.3c0,1.7-1.4,3.2-3.2,3.2c0,0,0,0,0,0c0,0,0,0,0,0c-1.7,0-3.2-1.4-3.2-3.2V96.9
			c0-1.7,1.4-3.2,3.2-3.2c0,0,0,0,0,0c0,0,0,0,0,0c1.7,0,3.2,1.4,3.2,3.2V127.3z M102,127.5c-0.1,1.6-1.5,2.9-3.2,2.9
			c-0.1,0-0.2,0-0.3,0c-1.7-0.1-3-1.7-2.9-3.4l2.5-30.3c0.1-1.7,1.7-3,3.4-2.9c1.7,0.1,3,1.7,2.9,3.4L102,127.5z M121.1,97.4
			l-5.4,30.3c-0.3,1.5-1.6,2.6-3.1,2.6c-0.2,0-0.4,0-0.6,0c-1.7-0.3-2.9-2-2.6-3.7l5.4-30.3c0.3-1.7,2-2.9,3.7-2.6
			C120.2,94.1,121.4,95.7,121.1,97.4z"/>
		<path class="st2" d="M107,80.4c-1.5,0-3-0.8-3.8-2.3l-17.2-32l-20,32.2c-1.2,2-3.9,2.6-5.9,1.4c-2-1.2-2.6-3.9-1.4-5.9l23.9-38.6
			c0.8-1.3,2.2-2.1,3.8-2c1.5,0,2.9,0.9,3.6,2.3L110.8,74c1.1,2.1,0.3,4.7-1.8,5.8C108.4,80.2,107.7,80.4,107,80.4z"/>
		<circle class="st3" cx="109.4" cy="79.7" r="3.6"/>
		<path class="st7" d="M137.8,71.2H85.2H32.7c-1.9,0-3.4,1.5-3.4,3.4v10.8c0,1.9,1.5,3.4,3.4,3.4h52.5h52.5c1.9,0,3.4-1.5,3.4-3.4
			V74.6C141.2,72.7,139.7,71.2,137.8,71.2z"/>
		<g>
			<path class="st5" d="M64.6,79.7c0,2-1.6,3.6-3.6,3.6c-2,0-3.6-1.6-3.6-3.6"/>
		</g>
		<g>
			<path class="st2" d="M64.6,80.1c0,2-1.6,3.6-3.6,3.6c-2,0-3.6-1.6-3.6-3.6c0-2,1.6-3.6,3.6-3.6C63,76.5,64.6,78.1,64.6,80.1z"/>
			<circle class="st2" cx="109" cy="80.4" r="3.6"/>
		</g>
	</g>
	<g>
		<circle class="st0" cx="322.2" cy="85.2" r="81.9"/>
		<g>
			<defs>
				<circle id="SVGID_5_" cx="322.2" cy="85.2" r="81.9"/>
			</defs>
			<clipPath id="SVGID_6_">
				<use xlink:href="#SVGID_5_"  style="overflow:visible;"/>
			</clipPath>
		</g>
		<path class="st8" d="M365.3,81.3h-43.1H279c-4.5,0-7.1,3.5-5.9,7.8l9,40.3c1.2,4.3,5.9,7.8,10.4,7.8h29.6h29.6
			c4.5,0,9.1-3.5,10.4-7.8l9-40.3C372.5,84.8,369.8,81.3,365.3,81.3z M295.5,130.3c-0.2,0-0.4,0-0.6,0c-1.5,0-2.8-1.1-3.1-2.6
			l-5.4-30.3c-0.3-1.7,0.8-3.4,2.6-3.7c1.7-0.3,3.4,0.8,3.7,2.6l5.4,30.3C298.3,128.4,297.2,130,295.5,130.3z M308.8,130.4
			c-0.1,0-0.2,0-0.3,0c-1.6,0-3-1.2-3.1-2.9l-2.5-30.3c-0.1-1.7,1.1-3.3,2.9-3.4c1.7-0.1,3.3,1.1,3.4,2.9l2.5,30.3
			C311.9,128.7,310.6,130.2,308.8,130.4z M325.4,127.3c0,1.7-1.4,3.2-3.2,3.2c0,0,0,0,0,0c0,0,0,0,0,0c-1.7,0-3.2-1.4-3.2-3.2V96.9
			c0-1.7,1.4-3.2,3.2-3.2c0,0,0,0,0,0c0,0,0,0,0,0c1.7,0,3.2,1.4,3.2,3.2V127.3z M339,127.5c-0.1,1.6-1.5,2.9-3.2,2.9
			c-0.1,0-0.2,0-0.3,0c-1.7-0.1-3-1.7-2.9-3.4l2.5-30.3c0.1-1.7,1.7-3,3.4-2.9c1.7,0.1,3,1.7,2.9,3.4L339,127.5z M358,97.4
			l-5.4,30.3c-0.3,1.5-1.6,2.6-3.1,2.6c-0.2,0-0.4,0-0.6,0c-1.7-0.3-2.9-2-2.6-3.7l5.4-30.3c0.3-1.7,2-2.9,3.7-2.6
			C357.2,94.1,358.3,95.7,358,97.4z"/>
		<path class="st2" d="M344,80.4c-1.5,0-3-0.8-3.8-2.3l-17.2-32l-20,32.2c-1.2,2-3.9,2.6-5.9,1.4c-2-1.2-2.6-3.9-1.4-5.9l23.9-38.6
			c0.8-1.3,2.2-2.1,3.8-2c1.5,0,2.9,0.9,3.6,2.3L347.7,74c1.1,2.1,0.3,4.7-1.8,5.8C345.3,80.2,344.6,80.4,344,80.4z"/>
		<circle class="st3" cx="346.4" cy="79.7" r="3.6"/>
		<path class="st4" d="M374.7,71.2h-52.5h-52.5c-1.9,0-3.4,1.5-3.4,3.4v10.8c0,1.9,1.5,3.4,3.4,3.4h52.5h52.5c1.9,0,3.4-1.5,3.4-3.4
			V74.6C378.2,72.7,376.6,71.2,374.7,71.2z"/>
		<g>
			<path class="st5" d="M301.6,79.7c0,2-1.6,3.6-3.6,3.6c-2,0-3.6-1.6-3.6-3.6"/>
		</g>
		<g>
			<path class="st2" d="M301.6,80.1c0,2-1.6,3.6-3.6,3.6c-2,0-3.6-1.6-3.6-3.6c0-2,1.6-3.6,3.6-3.6C300,76.5,301.6,78.1,301.6,80.1z
				"/>
			<circle class="st2" cx="346" cy="80.4" r="3.6"/>
		</g>
	</g>
</g>
</svg>
