<?xml version="1.0" encoding="utf-8"?>
<!-- Generator: Adobe Illustrator 19.0.0, SVG Export Plug-In . SVG Version: 6.00 Build 0)  -->
<svg version="1.1" id="Layer_1" xmlns="http://www.w3.org/2000/svg" xmlns:xlink="http://www.w3.org/1999/xlink" x="0px" y="0px"
	 viewBox="-58 298 200 200" style="enable-background:new -58 298 200 200;" xml:space="preserve">
<style type="text/css">
	.st0{fill:#FFFFFF;}
	.st1{fill:#339999;}
	.st2{fill:#3E4A5A;}
	.st3{fill:#414042;}
	.st4{fill:#00CCCC;}
	.st5{fill:#515254;}
</style>
<g id="background">
</g>
<g id="object">
	<g>
		<circle class="st0" cx="42" cy="398" r="98"/>
		<path class="st1" d="M93.6,393.3H42H-9.7c-5.4,0-8.5,4.2-7.1,9.3L-6,450.9c1.4,5.1,7.1,9.3,12.4,9.3h35.4h35.4
			c5.4,0,10.9-4.2,12.4-9.3l10.8-48.2C102.1,397.5,99,393.3,93.6,393.3z M10.1,452c-0.2,0-0.5,0-0.7,0c-1.8,0-3.4-1.3-3.7-3.1
			l-6.5-36.3c-0.4-2,1-4.1,3.1-4.4c2-0.4,4.1,1,4.4,3.1l6.5,36.3C13.4,449.6,12.1,451.6,10.1,452z M26,452c-0.1,0-0.2,0-0.4,0
			c-1.9,0-3.6-1.4-3.7-3.5l-3-36.3c-0.1-2,1.3-3.9,3.5-4.1c2-0.1,3.9,1.3,4.1,3.5l3,36.3C29.7,450.1,28.1,451.8,26,452z M45.8,448.4
			c0,2-1.7,3.8-3.8,3.8l0,0l0,0c-2,0-3.8-1.7-3.8-3.8V412c0-2,1.7-3.8,3.8-3.8l0,0l0,0c2,0,3.8,1.7,3.8,3.8V448.4z M62.1,448.5
			c-0.1,1.9-1.8,3.5-3.8,3.5c-0.1,0-0.2,0-0.4,0c-2-0.1-3.6-2-3.5-4.1l3-36.3c0.1-2,2-3.6,4.1-3.5c2,0.1,3.6,2,3.5,4.1L62.1,448.5z
			 M84.8,412.6l-6.5,36.3c-0.4,1.8-1.9,3.1-3.7,3.1c-0.2,0-0.5,0-0.7,0c-2-0.4-3.5-2.4-3.1-4.4l6.5-36.3c0.4-2,2.4-3.5,4.4-3.1
			C83.9,408.5,85.2,410.6,84.8,412.6z"/>
		<path class="st2" d="M68,392.1c-1.8,0-3.6-1-4.5-2.8l-20.6-38.3l-23.9,38.5c-1.4,2.4-4.7,3.1-7.1,1.7s-3.1-4.7-1.7-7.1l28.6-46.2
			c1-1.6,2.6-2.5,4.5-2.4c1.8,0,3.5,1.1,4.3,2.8l24.8,46.2c1.3,2.5,0.4,5.6-2.2,6.9C69.6,391.9,68.8,392.1,68,392.1z"/>
		<circle class="st3" cx="71" cy="391.3" r="4.3"/>
		<path class="st4" d="M104.8,381.1H42h-62.9c-2.3,0-4.1,1.8-4.1,4.1v12.9c0,2.3,1.8,4.1,4.1,4.1h62.8h62.8c2.3,0,4.1-1.8,4.1-4.1
			v-12.9C109,383,107.1,381.1,104.8,381.1z"/>
		<g>
			<path class="st5" d="M17.4,391.3c0,2.4-1.9,4.3-4.3,4.3s-4.3-1.9-4.3-4.3"/>
		</g>
		<g>
			<path class="st2" d="M17.4,391.9c0,2.4-1.9,4.3-4.3,4.3s-4.3-1.9-4.3-4.3s1.9-4.3,4.3-4.3S17.4,389.5,17.4,391.9z"/>
			<circle class="st2" cx="70.5" cy="392.3" r="4.3"/>
		</g>
	</g>
</g>
</svg>
